#define 1589793296224_width 16
#define 1589793296224_height 16
static char 1589793296224_bits[] = {
  0x4F, 0x7F, 0x07, 0x78, 0x05, 0x7C, 0x81, 0x50, 0x83, 0x21, 0x01, 0x04, 
  0x07, 0x48, 0x0F, 0x00, 0x03, 0x40, 0x03, 0x71, 0x01, 0x74, 0x01, 0x7C, 
  0x03, 0x7F, 0xC1, 0x7F, 0xF7, 0x7F, 0xFF, 0x7F, };
